<mxfile host="Electron" agent="Mozilla/5.0 (X11; Linux x86_64) AppleWebKit/537.36 (KHTML, like Gecko) draw.io/24.7.17 Chrome/128.0.6613.36 Electron/32.0.1 Safari/537.36" version="24.7.17">
  <diagram name="Page-1" id="CCggzNwdPnybejdQP5kh">
    <mxGraphModel dx="311" dy="558" grid="1" gridSize="5" guides="1" tooltips="1" connect="1" arrows="1" fold="1" page="1" pageScale="1" pageWidth="1169" pageHeight="827" math="1" shadow="0">
      <root>
        <mxCell id="0" />
        <mxCell id="1" parent="0" />
        <mxCell id="MrvQO-Zk9B1gZ7Mm1Of_-282" value="" style="ellipse;whiteSpace=wrap;html=1;aspect=fixed;" vertex="1" parent="1">
          <mxGeometry x="215" y="272.1" width="10" height="10" as="geometry" />
        </mxCell>
        <mxCell id="MrvQO-Zk9B1gZ7Mm1Of_-263" value="$$\texttt{H}$$" style="rounded=0;whiteSpace=wrap;html=1;" vertex="1" parent="1">
          <mxGeometry x="260" y="182.5" width="40" height="40" as="geometry" />
        </mxCell>
        <mxCell id="MrvQO-Zk9B1gZ7Mm1Of_-264" value="$$\texttt{X}$$" style="rounded=0;whiteSpace=wrap;html=1;" vertex="1" parent="1">
          <mxGeometry x="337.44" y="320" width="40" height="40" as="geometry" />
        </mxCell>
        <mxCell id="MrvQO-Zk9B1gZ7Mm1Of_-265" value="$$\texttt{Z}$$" style="rounded=0;whiteSpace=wrap;html=1;" vertex="1" parent="1">
          <mxGeometry x="435" y="320" width="40" height="40" as="geometry" />
        </mxCell>
        <mxCell id="MrvQO-Zk9B1gZ7Mm1Of_-266" value="" style="shape=image;verticalLabelPosition=bottom;labelBackgroundColor=default;verticalAlign=top;aspect=fixed;imageAspect=0;image=data:image/png,iVBORw0KGgoAAAANSUhEUgAABAAAAAFxCAQAAABHUhLLAAAABGdBTUEAALGPC/xhBQAAACBjSFJNAAB6JgAAgIQAAPoAAACA6AAAdTAAAOpgAAA6mAAAF3CculE8AAAAAmJLR0QA/4ePzL8AAAAHdElNRQfoBwoQMCATULpwAAAXI0lEQVR42u3debSddXkv8G84GQkkZCBhCBIDOAC5AUVmClgMS9eiMghqL3LvFU21VILUotZlRateqldbSluKQ1lijTYgCAEBQ6BIVFByKWVYagUCyBiSHEJmknP6BznJyZ7O3slOzt7v/nzOgmT/9rCyn/c9+/d93mknAAAAAAAAAAAAAAAAAAAAAAAAAAAAAAAAAAAAAAAAAAAAAAAAAAAAAAAAAAAAAAAAAAAAAAAAAAAAAAAAAAAAAAAAAAAAAAB0iiFKQMsYmiOzIqsVgoLaNbvl/mxQCAQA6D/535yZ1kcKrye35nQhAAEA+vwqRygCHeLeHKMIDL5dlIAWcKzpnw5ydN6qCAgAkCT/UwnoKOcqAQIAJMlwJaCjjFACBABIkv9SAjrKb5UAAQCSpFsJ6CivKAECAAAwCIYqAS3o/sxUBApkQQ5XBAQAGNiGLFcECrVGQ8uxCwAABAAAQAAAAAQAAEAAAAAEAABAAAAABAAAQAAAAAQAAEAAAAAEAABAAAAABAAAQAAAAAQAAEAAAAAEAAAQAAAAAQAAEAAAAAEAABAAAAABAAAQAAAAAQAAEAAAAAEAABAAAAABAAAQAACS5MC8L6OUAeo3VAmANndM5md0kuTpzMhyBQFbAIDi2ysLN03/yX5ZrCAgAACd4J6tPsfGZLaSgAAAFN3bc2DJyAcUBQQAoNhGZK4igAAAdJovZ0LZ2DeVBQQAoMiOyEVlY+tzlcKAAAAU18hcU+ET7GqFAQEAKLIv580VRi9TGBAAgOI6oeLpfotcBwAEAKC4xua7FT+97P8HAQAosCuyf4XRV3O90oAAABTVWVUu9nNzlioOCABAMU2puqH/e4oDAgBQ1M+saypc/CdJVuTHygMCAFBMn8vJVe65LmuUBwQAoIhOyGeq3net8oAAABTRhMxJV5X7VuYuBQIBACieIfl2plS995asUyIQAIDi+XTeXePeGxUIBACgeE7M52vc+2puVSIQAICimZw5GVrj/jvTrUggAADF0pV/zT41H2EHAAgAQOF8KafUvL838xQJBACgWM7MJQM84v78XplAAACKZEauyZABHvMjZQIBACiS8bk+owd8lCMAQAAACqQrczJtwEc9k0eUCgQAoDi+llPreNR8hQIBACiO8zO7rsctUCoQAICi+IP8U12P6xUAQAAAiuKN+VGG1/XIR/KccoEAABTB+MzLuDofe4dygQAAFMHwXJ+D6n60HQAgAAAFMCTfyol1P3pDfqpkIAAA7e8r+UADj743K5QMBACg3X0kn2jo8XYAgAAAtL3T8g8NPsMhgCAAAG3u+Pxbuhp6xrr8StlAAADa2YzMy6iy0Q01n7Mo6xQOBACgfR2Q27JH2ejyDK35rPsUDrbdUCUABtm+mZ+9ykaXpXeA5wkAYAsA0LYm5Cd5fdnomszNhAGeea/igQAAtKcxuTUHl41uzP/KmSVjpdsDXsyTygcCANCOds+teVvZaG8+kgMyqWS09Et/fqF8sD0cAwAMll1zU46tMP7JfD+Pl4WC0k8rRwCALQBAGxqVeTmpwviX89V8rKz/v61sxBEAIAAAbWd4rsvbK4z/cz6T0fl4Wf9/Z8lITxYpIggAQLt1/zflXRXGf5ALkgr9/w1lZwQ86muAQAAA2svo3JxTK4zflPPSU7H//0JmlIz9Uhlh+zgIENjZ0/+8nFxh/Pa8N69W6f8fzGElYw8pJAgAQPsYm1tzTIXx+Tk9a5Mq/f/E7F0y+rBSwvaxCwDYecbnjorT/x15d9YmVfv/GWXPeEQxQQAA2sNeuTNHVBhfmDOyJqna/6csACwvuywQIAAALen1uadCJ5/cnXdm5aa/V+7/k0P1/yAAAO3okCzMgRXGb+s3/Vfr/5M3lYw7AgAEAKANHJW7s0+F8Vs2b/yv1f8nb7QFAAQAoN2cljsrfrXvdTlj06F/tfv/yRkvAIAAALSXj+SG7FphfE7en1f73a7e/7+p7LkCAAgAQAsbkktzZboq3HNlPpAN/W5X7//LdwC8lBeVFraXCwEBO8rwfDvnVrznb/KpkpHq/b8jAEAAANrI2Fxf8fv+evPxXF4yNjoXV+3/k2kl9z2quCAAAK3pgNyUgyuMb8ys/EvZ6IXZs2r/Xx4AHlNeEACAVnRSrqt43P+qvC83l43W2v+fJK8vufdxBYbt5yBAoNk+lNsrTv9LM7PC9D9Q/z8puwsAIAAAra0rl+WbGV7hnsdyTH5eYXyg/n9a2TOeUGbYfnYBAM0zPt/PzIr33JfTsqTiPeX9//X9+v/yHQBLs0KhwRYAoHUclvurTP835OQq03+l/v+vt7q9n/4fBACgdb0/Pyvr1l/z93lPvyv+N9b/J1NK7n9KqUEAAFrD0FyWORUv+Ls+H8zs9FR53sD9f3kAeEa5oTm/tgDbZ5/MyYkV71mSM7OwxjMH7v+TfQUAEACA1nNyvpe9K97zcP6o5h77evp/AQB2ELsAgG3XlS/kjirT/405boAD9urp/7syWQAAKKpZ6d3q5xdK0hYm5faSJdf305PLBmwvRufFsmfNKHvUXmWv/cY2rNQvS97D+VYeBp9dAMC2eWeuLuvOX9Odc3PLgM+vp/9P2XcEJs8rPTSDXQBA40bmstxcZfr/TY6tY/qvb/9/ykLCepcBAlsAgMFxaOZkepX75ub8rKzjNerr/8u3ACxJrwUAtgAAO9uQzMp9Vab/dbko761r+q+3/y/fArDEIgBbAICdP/1/Kx+sct/jOSeL6nydevt/AQBsAQBawNlVp/+bckTd03/9/X8yUQAAAQAYbP+74ui6fDynZ3ndr1J//5/sUXJ7qYUAzWEXAFC/iRXGfp0/zgMNvEYj/X8yruR2dyHqeHBOsTLRkA1Zll9nvQAADI5f5W0lI9/NR7OqoddopP9PxpbcfrkQdbw4F1uZaNiS/EW+07yXswsAqN/fb/W1vt15f85rcPpvrP8vSgAYZtWhCfbM1TlHAAAGw2/y3ryw6e+3ZHp+0PArNNb/FyUATLbq0BRD8sXmvZhdAEAj5uWAHJOpeaDuY/63p/8vSgAYbcWhSQ7K+CwTAIDBsCp3bPNzG+3/d8muJSPteSHgHqsNTVuX1jbrpewCAHZeH9xo/z8qQ8riRzvqtvBpkgVZLQAA7abR/j8ZVTaypi3f+UsWPk2xLLOb92J2AQCt2v8XJwCUfoHR6qyzQtCglbkrl+YJAQAofv9fnABQXotvWyEYbHYBAK3a/6fsEMA07wAoEAAAWrP/r7QFQAAAAQAoeP+fDC+5vd4JdSAAAEXv/8uPUtqolCAAAEXv/8s/oQQAEACAwvf/SZcAAAIA0Gn9vwAAAgDQgf1/eQBwCCAIAEDh+3/HAIAAAHRg/1++BaBXQUEAAIre/yfDSm4PUVJoluZ+F8DuuSAnZaKy0iDrjP5fAIA2DgB75e68QUmBJvX/AgDsQM3cBfB3pn+aZLwS6P+TlB8DIABACwaAETlDOWkSuwT0/33P2NpwZYXWCwBj/GrSNEOVQP+fJNlQcnuUskLrBYCleV45aZLVSqD/T5J0l9weJhxC6wWAnnxVOWmSF5RA/58kea5sZKTSQqsFgORv8zeu00VTrFEC/X+S5NGynQACADRJMzen9eZT+aeckNHKSoNOyLmKoP+v4JUsylH9br+UpYoLUByz0rvVzy+UpM37/xdLlmhPZmzja52z1etc3aYV+WVJPc63kjD4XAoYaNX+P0muzQ2b//5kLlFcaBZH1ALN7v+bs/+/77lnZ1bOS7IgX8kK5QUBACh+/58kG3NlrlRWaDa7AIDW7f8BAQDoyP4fEAAA/T8gAAD6f0AAAAbdbvp/EAAA/b/+HwQAoAP6/4v0/9A+XAcA0P/vbAfnFEWgQevyQFYKAID+v51dnIsVgYatyGfyD817ObsAgB3T//9Q/7/ZcCWgCcbkipwnAACt3v9/UVk2m6wENMnnM0QAAPT/7WK0EtAkUzNeAAD0/+1ioxLQJBuyWgAA9P/tYrkS0CS3Z40AAOj/28VSJaApXsjs5r2Y0wAB/f+O1ltye0leURQatCb/ni/lOQEAqPV7PSETMjETsmcmZmImZGJGZI8kY9KVURmZYdlt86O7N01P3elNT7qzPN1Zvun/3VmepXkmz+v/m+rT+bYiMPgfFEC7G5WpmZqp2X/Tn42ddLbHpj/H1XjMujyTZ/Lkpv//Pk9s3qut/wcBANiJ9smhmZ5D8+aGJ/xtMSLTMi0n9Bt5IY/m1/ldLtH/gwAA7FhjMn3TtD+9eecCb6PJmZyTK4zr/0EAAJpkWo7PW3NcDm+D83bekmuyKAvzH859BwEA2BZjc0yOztE5OmPbKqxMyweSrMyi3Jd/z0+zyqIEAQAY2Mgcn5mZmeltfZ2O3XJiTswleTX3ZUHuzL1Zb9GCAABUckhmZmb+ILsW6D0Ny/E5Pp/LqizMnVmQB9JjQYMAACTJmLwzp2Zm9m3qq67O0ryUJXkpS7M0y7Iu67MqPXk5ycvpyaoM2/Q1tbtmxOY/x2Vc9uj337hMbMq/ZnROzalJXsxNuTF3ZK3FDgIAdK5xeXfOyjs2TcDbN90vzhN5MouzOIvzfJY27StDRmRKpuR1mZIp2S/7Zcp2RYJJ+VA+lJW5LTfmFtfIBwEAOs3EnJGz8vYM2+ZX2JjH81AeziNZnMV5cYf9S9flsTy21cjYHJ6bsvt2vOZueU/ek1fz0/woN+ZpqwMIAFB8k3JW3pMT07VNz342D+ehPJyH8mjzvhWsQS/n2LLp/4UMa/jaBMPyh/nDXJ57ck2uywqrBkCnmZXerX5+UdD32ZVTMjfrS95tPT/rc38uz3mZ2hLvY7e8WPLv68mMJPvktFya+Vm1De9wTebl7O3YHtLaflnybs/3Sw/QKQHgzflKnmt4WnwyP8jsHNViE+Nflv07r93q/qE5LH+SOdvwfp/L13OYAAAgABTBmHw4P29wIlyWa/Ph7N+S76da/1/JIbkwP8ryBt/9f+ZjGSMAAAgA7estubqhDeKv5p58Nkdt4/EBrdH/l+vKkflUfpK1DVRiRf4xBwsAAAJAu+nKmbm7gQnvhVyV09ug722k/y+1e87J9xrYHtCTBTmjpcOQAAAgAPQzJrPzRN3T3JJck9Pa5oycxvv/8mh0fC7P03XX59lcmj0FAAABoLUdlCuyou5D/L6e49rqiv/b0/9vbUjeli/lv+qs1Np8KwcJAAACQGs6KjdlY51Hu381R2ZI273D7e//S2PAsbkyy+qq2YbMyXQBAEAAaC1HZ1566prG5rft+e7N6/+3NiKnZW7W1XVUwLwcLQAACACt4ZjcVlcP+3AuzqQ2Xk7N7v+3NjEfK5soK//8JCcKAAACwOA6LrfXMWV158oc2eZLaUf1/1s7LN+s68TJhTlFAAAQAAZr8p9fx1T1m1yQ3QqwlHZs/9/fuPx5flfXloDDBQAAAWDnOihz6+pTzy7Eeew7q//fYpeckrnZMOAxAXNzgAAAIADsHOPzdwN+pc/qfCOHFGgZ7bz+v78D87UBT6pcm69nggAAIADsWMNz8YCnrT2bv8zEQi2hnd3/9zcun8vSASq+PJ/KKAEAQADYUc4acN/073NhRhZuCQ1O/7/F7vmLAb9b8Omc27JXVhAAANo4AByRewacgv6sgJP/4Pb/W4zKBXlygCVwV4t+gZAAANCmAWBMrhjgGn9P5YKMKOjyGez+f4th+T/5bc3lsD6XZbQAACAANMNpeWqAyX92ITv/Vur/t9gl5+XZAXbDnCcAAAgA22e/3FhzslmWizO80Eundfr/LUbnswOcHXBzpgkAAALAtunK7JrTzPpc3vInoBWt/99iUq6oeTLm6ny2Zb5zQQAAaKMAMCP31ewx5xfqPP926v+32D/X1PwKpoda5FqBAgBAmwSA4flyXq0xsSzKSR2xZFq3/9/iyPy8xpJal09nqAAAIADU4+AsGuAQs106ZMm0dv/fZ0jOz5IaS+zevFEAABAABppMZmVl1alkY67KmI5ZLu3Q//cZl8trnKi5Jp8c1O9kEAAAWjwATM7NNTrJB3NURy2X9uj/t3hrzaM2fpaDBAAAAaCSc2pcc35lPtEC+5L1/7V15cJ0V12Gr+SDAgCAALC1sfluje7xx5nacUul3fr/Pnvn32osyWsG5TqBAgBAiwaAt+TxqlPGc3lvBy6Tduz/tzinxkGBjwzC6ZsCAEBLBoDzsqrqdHFt4S/1U6z+v8+kXF/jEkEfFgAAOj0AjMw3qk4UL2dWhy6R9u7/+5xd45iOnbsrQAAAaLEA8Loax43/rKWuJq//3xZ7ZV7V5ftoDhUAADozALyraoe4Nn/eMRf7KWr//5oh+UheqXpWwPsFAIBOCwC75AtVLxzzYKZ39PIoSv/f58D8/ypLuidfyhABAKBzAsDY3FZ1Svh/GdHRS6NI/X+fkbmy6q6AH+6EowEEAICWCAD75oGqh/2d1fFL4zMF6//7nFn1EkEP5nUCAEDxA8CRea7qYWFv7vhlUcT+v88b8h9VlvyzOVIAACh2ADij6jn//zoo14jT/+9MI3N51cM+zxUAAIobAGZXOfBvbWZbDAXv//ucW+WsgJ5ctsPO/BAAAAYxAAyteiDYUx32LX+N9P9zC/guD80TVdaEORkuAAAUKwCMya1VPvTvyJ4WQdX+/38U8p3umYVV1obbdsiOIAEAYJACwKSqx/1f1WFf8qv/f82IfKfKGvHzjBMAAIoRAPbOw1X2+l6q+B3Y//epdkTII9lXAABo/wAwNb+rcuDf+5S+Q/v/Pu/MyxXXjSdykAAA0N4B4E15uuJH/Es5XuE7uv9/zfQsrrh+PJ/DBACKbRcloNAOy92ZUmH80bwtC5Wnn9llh0Jel//sgPf9UI7O/RXGJ+euHGe1AGjPLQBHZVmV4/73UHT9/2a7586K68mqnGQLAED7BYCTsqLix/r3MkzJS3Ti/v/+RuaGKjsCdhcAANorAJyc1RU/0r9hx5f+v4Kh+ZeK68vZAgBF5aOQYhqd72dUhfG/zZ+kR3lKdOr+//425Px8rcL4vlYPgHbaAnBmxW7uC0qt/6/p0+kpqcW7bAHAFgBoJ3uVjfTmk/krhdH/1/R/89Fs7Hf715lvBQFopy0Ap5S84sb8qTLr/+ty5uaLA/0mb2jSa9oCQAtyFXSK6a482O9rbDfm/HxHUfT/dbk+d+fd2TO/zS1ZbwUBaK8tAMnUPLTp1bpzuhLr/weVLQDYAgA7zeIcnpk5JC9kXpYrh/4fEADoFBvy4/xYGWr2/7NLRnrzRWWBzuAsAND/6/9BAAD0/4AAAOj/AQEA0P8DAgCg/wcEAED/DwgAQOu6sKz//6H+HwQAoNiG5KMlIz2+KREEAKDoxmVKycj1eUhZQAAAim1l1un/QQAAOs363LjV7bn6fxAAgE5wUR7b/Pff5iIFgc7jy4CgEz2XIzI7b09vFuTyrFAQEACAztCdz+fzygCdyy4AABAAAAABAAAQAAAAAQAAEAAAAAEAABAAAAABAAAQAAAAAQAAEAAAAAEAABAAAAABAAAQAAAAAQAAEAAAQAAAAAQAAEAAAAAEAABAAAAABAAAQAAAAAQAAEAAAAAEAABAAAAABAAAQAAAALbBUCWgBU3KLEWgQPZUAgQAqMe0XKUIADuSXQAAIADAoNhfCbDGgwBA59lLCegoeysBAgAkyVNKQEd5UgkYfEOUgBYwPkuEUTpGTyZmuTIw2LqUgBawJmvzDmWgQ1ySOxUBWwCgzzvy1eyf3ixLt2JQQOMyLr15Kp/IAsUAAAAAAAAAAAAAAAAAAAAAAAAAAAAAAAAAAAAAAAAAAAAAAAAAAAAAAAAAAAAAAAAAAAAAAAAAAAAAAAAAAAAAAAAAAAAAAAAAAHao/wbjRMtsqcvGKQAAACV0RVh0ZGF0ZTpjcmVhdGUAMjAyNC0wNy0xMFQxNjo0ODozMiswMDowMBpRru0AAAAldEVYdGRhdGU6bW9kaWZ5ADIwMjQtMDctMTBUMTY6NDg6MzIrMDA6MDBrDBZRAAAAAElFTkSuQmCC;" vertex="1" parent="1">
          <mxGeometry x="295" y="180" width="124.88" height="45" as="geometry" />
        </mxCell>
        <mxCell id="MrvQO-Zk9B1gZ7Mm1Of_-269" value="" style="endArrow=none;html=1;rounded=0;exitX=0.619;exitY=-0.017;exitDx=0;exitDy=0;exitPerimeter=0;" edge="1" parent="1" source="MrvQO-Zk9B1gZ7Mm1Of_-265">
          <mxGeometry width="50" height="50" relative="1" as="geometry">
            <mxPoint x="395" y="260" as="sourcePoint" />
            <mxPoint x="415" y="200" as="targetPoint" />
            <Array as="points">
              <mxPoint x="460" y="200" />
            </Array>
          </mxGeometry>
        </mxCell>
        <mxCell id="MrvQO-Zk9B1gZ7Mm1Of_-270" value="" style="endArrow=none;html=1;rounded=0;exitX=0.5;exitY=0;exitDx=0;exitDy=0;" edge="1" parent="1" source="MrvQO-Zk9B1gZ7Mm1Of_-265">
          <mxGeometry width="50" height="50" relative="1" as="geometry">
            <mxPoint x="460" y="284" as="sourcePoint" />
            <mxPoint x="415" y="205" as="targetPoint" />
            <Array as="points">
              <mxPoint x="455" y="205" />
            </Array>
          </mxGeometry>
        </mxCell>
        <mxCell id="MrvQO-Zk9B1gZ7Mm1Of_-271" value="" style="shape=ellipse;fillColor=#000000;strokeColor=none;html=1;sketch=0;" vertex="1" parent="1">
          <mxGeometry x="450" y="195" width="15" height="15" as="geometry" />
        </mxCell>
        <mxCell id="MrvQO-Zk9B1gZ7Mm1Of_-272" value="" style="shape=image;verticalLabelPosition=bottom;labelBackgroundColor=default;verticalAlign=top;aspect=fixed;imageAspect=0;image=data:image/png,iVBORw0KGgoAAAANSUhEUgAABAAAAAFxCAQAAABHUhLLAAAABGdBTUEAALGPC/xhBQAAACBjSFJNAAB6JgAAgIQAAPoAAACA6AAAdTAAAOpgAAA6mAAAF3CculE8AAAAAmJLR0QA/4ePzL8AAAAHdElNRQfoBwoQMCATULpwAAAXI0lEQVR42u3debSddXkv8G84GQkkZCBhCBIDOAC5AUVmClgMS9eiMghqL3LvFU21VILUotZlRateqldbSluKQ1lijTYgCAEBQ6BIVFByKWVYagUCyBiSHEJmknP6BznJyZ7O3slOzt7v/nzOgmT/9rCyn/c9+/d93mknAAAAAAAAAAAAAAAAAAAAAAAAAAAAAAAAAAAAAAAAAAAAAAAAAAAAAAAAAAAAAAAAAAAAAAAAAAAAAAAAAAAAAAAAAAAAAAB0iiFKQMsYmiOzIqsVgoLaNbvl/mxQCAQA6D/535yZ1kcKrye35nQhAAEA+vwqRygCHeLeHKMIDL5dlIAWcKzpnw5ydN6qCAgAkCT/UwnoKOcqAQIAJMlwJaCjjFACBABIkv9SAjrKb5UAAQCSpFsJ6CivKAECAAAwCIYqAS3o/sxUBApkQQ5XBAQAGNiGLFcECrVGQ8uxCwAABAAAQAAAAAQAAEAAAAAEAABAAAAABAAAQAAAAAQAAEAAAAAEAABAAAAABAAAQAAAAAQAAEAAAAAEAAAQAAAAAQAAEAAAAAEAABAAAAABAAAQAAAAAQAAEAAAAAEAABAAAAABAAAQAACS5MC8L6OUAeo3VAmANndM5md0kuTpzMhyBQFbAIDi2ysLN03/yX5ZrCAgAACd4J6tPsfGZLaSgAAAFN3bc2DJyAcUBQQAoNhGZK4igAAAdJovZ0LZ2DeVBQQAoMiOyEVlY+tzlcKAAAAU18hcU+ET7GqFAQEAKLIv580VRi9TGBAAgOI6oeLpfotcBwAEAKC4xua7FT+97P8HAQAosCuyf4XRV3O90oAAABTVWVUu9nNzlioOCABAMU2puqH/e4oDAgBQ1M+saypc/CdJVuTHygMCAFBMn8vJVe65LmuUBwQAoIhOyGeq3net8oAAABTRhMxJV5X7VuYuBQIBACieIfl2plS995asUyIQAIDi+XTeXePeGxUIBACgeE7M52vc+2puVSIQAICimZw5GVrj/jvTrUggAADF0pV/zT41H2EHAAgAQOF8KafUvL838xQJBACgWM7MJQM84v78XplAAACKZEauyZABHvMjZQIBACiS8bk+owd8lCMAQAAACqQrczJtwEc9k0eUCgQAoDi+llPreNR8hQIBACiO8zO7rsctUCoQAICi+IP8U12P6xUAQAAAiuKN+VGG1/XIR/KccoEAABTB+MzLuDofe4dygQAAFMHwXJ+D6n60HQAgAAAFMCTfyol1P3pDfqpkIAAA7e8r+UADj743K5QMBACg3X0kn2jo8XYAgAAAtL3T8g8NPsMhgCAAAG3u+Pxbuhp6xrr8StlAAADa2YzMy6iy0Q01n7Mo6xQOBACgfR2Q27JH2ejyDK35rPsUDrbdUCUABtm+mZ+9ykaXpXeA5wkAYAsA0LYm5Cd5fdnomszNhAGeea/igQAAtKcxuTUHl41uzP/KmSVjpdsDXsyTygcCANCOds+teVvZaG8+kgMyqWS09Et/fqF8sD0cAwAMll1zU46tMP7JfD+Pl4WC0k8rRwCALQBAGxqVeTmpwviX89V8rKz/v61sxBEAIAAAbWd4rsvbK4z/cz6T0fl4Wf9/Z8lITxYpIggAQLt1/zflXRXGf5ALkgr9/w1lZwQ86muAQAAA2svo3JxTK4zflPPSU7H//0JmlIz9Uhlh+zgIENjZ0/+8nFxh/Pa8N69W6f8fzGElYw8pJAgAQPsYm1tzTIXx+Tk9a5Mq/f/E7F0y+rBSwvaxCwDYecbnjorT/x15d9YmVfv/GWXPeEQxQQAA2sNeuTNHVBhfmDOyJqna/6csACwvuywQIAAALen1uadCJ5/cnXdm5aa/V+7/k0P1/yAAAO3okCzMgRXGb+s3/Vfr/5M3lYw7AgAEAKANHJW7s0+F8Vs2b/yv1f8nb7QFAAQAoN2cljsrfrXvdTlj06F/tfv/yRkvAIAAALSXj+SG7FphfE7en1f73a7e/7+p7LkCAAgAQAsbkktzZboq3HNlPpAN/W5X7//LdwC8lBeVFraXCwEBO8rwfDvnVrznb/KpkpHq/b8jAEAAANrI2Fxf8fv+evPxXF4yNjoXV+3/k2kl9z2quCAAAK3pgNyUgyuMb8ys/EvZ6IXZs2r/Xx4AHlNeEACAVnRSrqt43P+qvC83l43W2v+fJK8vufdxBYbt5yBAoNk+lNsrTv9LM7PC9D9Q/z8puwsAIAAAra0rl+WbGV7hnsdyTH5eYXyg/n9a2TOeUGbYfnYBAM0zPt/PzIr33JfTsqTiPeX9//X9+v/yHQBLs0KhwRYAoHUclvurTP835OQq03+l/v+vt7q9n/4fBACgdb0/Pyvr1l/z93lPvyv+N9b/J1NK7n9KqUEAAFrD0FyWORUv+Ls+H8zs9FR53sD9f3kAeEa5oTm/tgDbZ5/MyYkV71mSM7OwxjMH7v+TfQUAEACA1nNyvpe9K97zcP6o5h77evp/AQB2ELsAgG3XlS/kjirT/405boAD9urp/7syWQAAKKpZ6d3q5xdK0hYm5faSJdf305PLBmwvRufFsmfNKHvUXmWv/cY2rNQvS97D+VYeBp9dAMC2eWeuLuvOX9Odc3PLgM+vp/9P2XcEJs8rPTSDXQBA40bmstxcZfr/TY6tY/qvb/9/ykLCepcBAlsAgMFxaOZkepX75ub8rKzjNerr/8u3ACxJrwUAtgAAO9uQzMp9Vab/dbko761r+q+3/y/fArDEIgBbAICdP/1/Kx+sct/jOSeL6nydevt/AQBsAQBawNlVp/+bckTd03/9/X8yUQAAAQAYbP+74ui6fDynZ3ndr1J//5/sUXJ7qYUAzWEXAFC/iRXGfp0/zgMNvEYj/X8yruR2dyHqeHBOsTLRkA1Zll9nvQAADI5f5W0lI9/NR7OqoddopP9PxpbcfrkQdbw4F1uZaNiS/EW+07yXswsAqN/fb/W1vt15f85rcPpvrP8vSgAYZtWhCfbM1TlHAAAGw2/y3ryw6e+3ZHp+0PArNNb/FyUATLbq0BRD8sXmvZhdAEAj5uWAHJOpeaDuY/63p/8vSgAYbcWhSQ7K+CwTAIDBsCp3bPNzG+3/d8muJSPteSHgHqsNTVuX1jbrpewCAHZeH9xo/z8qQ8riRzvqtvBpkgVZLQAA7abR/j8ZVTaypi3f+UsWPk2xLLOb92J2AQCt2v8XJwCUfoHR6qyzQtCglbkrl+YJAQAofv9fnABQXotvWyEYbHYBAK3a/6fsEMA07wAoEAAAWrP/r7QFQAAAAQAoeP+fDC+5vd4JdSAAAEXv/8uPUtqolCAAAEXv/8s/oQQAEACAwvf/SZcAAAIA0Gn9vwAAAgDQgf1/eQBwCCAIAEDh+3/HAIAAAHRg/1++BaBXQUEAAIre/yfDSm4PUVJoluZ+F8DuuSAnZaKy0iDrjP5fAIA2DgB75e68QUmBJvX/AgDsQM3cBfB3pn+aZLwS6P+TlB8DIABACwaAETlDOWkSuwT0/33P2NpwZYXWCwBj/GrSNEOVQP+fJNlQcnuUskLrBYCleV45aZLVSqD/T5J0l9weJhxC6wWAnnxVOWmSF5RA/58kea5sZKTSQqsFgORv8zeu00VTrFEC/X+S5NGynQACADRJMzen9eZT+aeckNHKSoNOyLmKoP+v4JUsylH9br+UpYoLUByz0rvVzy+UpM37/xdLlmhPZmzja52z1etc3aYV+WVJPc63kjD4XAoYaNX+P0muzQ2b//5kLlFcaBZH1ALN7v+bs/+/77lnZ1bOS7IgX8kK5QUBACh+/58kG3NlrlRWaDa7AIDW7f8BAQDoyP4fEAAA/T8gAAD6f0AAAAbdbvp/EAAA/b/+HwQAoAP6/4v0/9A+XAcA0P/vbAfnFEWgQevyQFYKAID+v51dnIsVgYatyGfyD817ObsAgB3T//9Q/7/ZcCWgCcbkipwnAACt3v9/UVk2m6wENMnnM0QAAPT/7WK0EtAkUzNeAAD0/+1ioxLQJBuyWgAA9P/tYrkS0CS3Z40AAOj/28VSJaApXsjs5r2Y0wAB/f+O1ltye0leURQatCb/ni/lOQEAqPV7PSETMjETsmcmZmImZGJGZI8kY9KVURmZYdlt86O7N01P3elNT7qzPN1Zvun/3VmepXkmz+v/m+rT+bYiMPgfFEC7G5WpmZqp2X/Tn42ddLbHpj/H1XjMujyTZ/Lkpv//Pk9s3qut/wcBANiJ9smhmZ5D8+aGJ/xtMSLTMi0n9Bt5IY/m1/ldLtH/gwAA7FhjMn3TtD+9eecCb6PJmZyTK4zr/0EAAJpkWo7PW3NcDm+D83bekmuyKAvzH859BwEA2BZjc0yOztE5OmPbKqxMyweSrMyi3Jd/z0+zyqIEAQAY2Mgcn5mZmeltfZ2O3XJiTswleTX3ZUHuzL1Zb9GCAABUckhmZmb+ILsW6D0Ny/E5Pp/LqizMnVmQB9JjQYMAACTJmLwzp2Zm9m3qq67O0ryUJXkpS7M0y7Iu67MqPXk5ycvpyaoM2/Q1tbtmxOY/x2Vc9uj337hMbMq/ZnROzalJXsxNuTF3ZK3FDgIAdK5xeXfOyjs2TcDbN90vzhN5MouzOIvzfJY27StDRmRKpuR1mZIp2S/7Zcp2RYJJ+VA+lJW5LTfmFtfIBwEAOs3EnJGz8vYM2+ZX2JjH81AeziNZnMV5cYf9S9flsTy21cjYHJ6bsvt2vOZueU/ek1fz0/woN+ZpqwMIAFB8k3JW3pMT07VNz342D+ehPJyH8mjzvhWsQS/n2LLp/4UMa/jaBMPyh/nDXJ57ck2uywqrBkCnmZXerX5+UdD32ZVTMjfrS95tPT/rc38uz3mZ2hLvY7e8WPLv68mMJPvktFya+Vm1De9wTebl7O3YHtLaflnybs/3Sw/QKQHgzflKnmt4WnwyP8jsHNViE+Nflv07r93q/qE5LH+SOdvwfp/L13OYAAAgABTBmHw4P29wIlyWa/Ph7N+S76da/1/JIbkwP8ryBt/9f+ZjGSMAAAgA7estubqhDeKv5p58Nkdt4/EBrdH/l+vKkflUfpK1DVRiRf4xBwsAAAJAu+nKmbm7gQnvhVyV09ug722k/y+1e87J9xrYHtCTBTmjpcOQAAAgAPQzJrPzRN3T3JJck9Pa5oycxvv/8mh0fC7P03XX59lcmj0FAAABoLUdlCuyou5D/L6e49rqiv/b0/9vbUjeli/lv+qs1Np8KwcJAAACQGs6KjdlY51Hu381R2ZI273D7e//S2PAsbkyy+qq2YbMyXQBAEAAaC1HZ1566prG5rft+e7N6/+3NiKnZW7W1XVUwLwcLQAACACt4ZjcVlcP+3AuzqQ2Xk7N7v+3NjEfK5soK//8JCcKAAACwOA6LrfXMWV158oc2eZLaUf1/1s7LN+s68TJhTlFAAAQAAZr8p9fx1T1m1yQ3QqwlHZs/9/fuPx5flfXloDDBQAAAWDnOihz6+pTzy7Eeew7q//fYpeckrnZMOAxAXNzgAAAIADsHOPzdwN+pc/qfCOHFGgZ7bz+v78D87UBT6pcm69nggAAIADsWMNz8YCnrT2bv8zEQi2hnd3/9zcun8vSASq+PJ/KKAEAQADYUc4acN/073NhRhZuCQ1O/7/F7vmLAb9b8Omc27JXVhAAANo4AByRewacgv6sgJP/4Pb/W4zKBXlygCVwV4t+gZAAANCmAWBMrhjgGn9P5YKMKOjyGez+f4th+T/5bc3lsD6XZbQAACAANMNpeWqAyX92ITv/Vur/t9gl5+XZAXbDnCcAAAgA22e/3FhzslmWizO80Eundfr/LUbnswOcHXBzpgkAAALAtunK7JrTzPpc3vInoBWt/99iUq6oeTLm6ny2Zb5zQQAAaKMAMCP31ewx5xfqPP926v+32D/X1PwKpoda5FqBAgBAmwSA4flyXq0xsSzKSR2xZFq3/9/iyPy8xpJal09nqAAAIADU4+AsGuAQs106ZMm0dv/fZ0jOz5IaS+zevFEAABAABppMZmVl1alkY67KmI5ZLu3Q//cZl8trnKi5Jp8c1O9kEAAAWjwATM7NNTrJB3NURy2X9uj/t3hrzaM2fpaDBAAAAaCSc2pcc35lPtEC+5L1/7V15cJ0V12Gr+SDAgCAALC1sfluje7xx5nacUul3fr/Pnvn32osyWsG5TqBAgBAiwaAt+TxqlPGc3lvBy6Tduz/tzinxkGBjwzC6ZsCAEBLBoDzsqrqdHFt4S/1U6z+v8+kXF/jEkEfFgAAOj0AjMw3qk4UL2dWhy6R9u7/+5xd45iOnbsrQAAAaLEA8Loax43/rKWuJq//3xZ7ZV7V5ftoDhUAADozALyraoe4Nn/eMRf7KWr//5oh+UheqXpWwPsFAIBOCwC75AtVLxzzYKZ39PIoSv/f58D8/ypLuidfyhABAKBzAsDY3FZ1Svh/GdHRS6NI/X+fkbmy6q6AH+6EowEEAICWCAD75oGqh/2d1fFL4zMF6//7nFn1EkEP5nUCAEDxA8CRea7qYWFv7vhlUcT+v88b8h9VlvyzOVIAACh2ADij6jn//zoo14jT/+9MI3N51cM+zxUAAIobAGZXOfBvbWZbDAXv//ucW+WsgJ5ctsPO/BAAAAYxAAyteiDYUx32LX+N9P9zC/guD80TVdaEORkuAAAUKwCMya1VPvTvyJ4WQdX+/38U8p3umYVV1obbdsiOIAEAYJACwKSqx/1f1WFf8qv/f82IfKfKGvHzjBMAAIoRAPbOw1X2+l6q+B3Y//epdkTII9lXAABo/wAwNb+rcuDf+5S+Q/v/Pu/MyxXXjSdykAAA0N4B4E15uuJH/Es5XuE7uv9/zfQsrrh+PJ/DBACKbRcloNAOy92ZUmH80bwtC5Wnn9llh0Jel//sgPf9UI7O/RXGJ+euHGe1AGjPLQBHZVmV4/73UHT9/2a7586K68mqnGQLAED7BYCTsqLix/r3MkzJS3Ti/v/+RuaGKjsCdhcAANorAJyc1RU/0r9hx5f+v4Kh+ZeK68vZAgBF5aOQYhqd72dUhfG/zZ+kR3lKdOr+//425Px8rcL4vlYPgHbaAnBmxW7uC0qt/6/p0+kpqcW7bAHAFgBoJ3uVjfTmk/krhdH/1/R/89Fs7Hf715lvBQFopy0Ap5S84sb8qTLr/+ty5uaLA/0mb2jSa9oCQAtyFXSK6a482O9rbDfm/HxHUfT/dbk+d+fd2TO/zS1ZbwUBaK8tAMnUPLTp1bpzuhLr/weVLQDYAgA7zeIcnpk5JC9kXpYrh/4fEADoFBvy4/xYGWr2/7NLRnrzRWWBzuAsAND/6/9BAAD0/4AAAOj/AQEA0P8DAgCg/wcEAED/DwgAQOu6sKz//6H+HwQAoNiG5KMlIz2+KREEAKDoxmVKycj1eUhZQAAAim1l1un/QQAAOs363LjV7bn6fxAAgE5wUR7b/Pff5iIFgc7jy4CgEz2XIzI7b09vFuTyrFAQEACAztCdz+fzygCdyy4AABAAAAABAAAQAAAAAQAAEAAAAAEAABAAAAABAAAQAAAAAQAAEAAAAAEAABAAAAABAAAQAAAAAQAAEAAAQAAAAAQAAEAAAAAEAABAAAAABAAAQAAAAAQAAEAAAAAEAABAAAAABAAAQAAAALbBUCWgBU3KLEWgQPZUAgQAqMe0XKUIADuSXQAAIADAoNhfCbDGgwBA59lLCegoeysBAgAkyVNKQEd5UgkYfEOUgBYwPkuEUTpGTyZmuTIw2LqUgBawJmvzDmWgQ1ySOxUBWwCgzzvy1eyf3ixLt2JQQOMyLr15Kp/IAsUAAAAAAAAAAAAAAAAAAAAAAAAAAAAAAAAAAAAAAAAAAAAAAAAAAAAAAAAAAAAAAAAAAAAAAAAAAAAAAAAAAAAAAAAAAAAAAAAAAHao/wbjRMtsqcvGKQAAACV0RVh0ZGF0ZTpjcmVhdGUAMjAyNC0wNy0xMFQxNjo0ODozMiswMDowMBpRru0AAAAldEVYdGRhdGU6bW9kaWZ5ADIwMjQtMDctMTBUMTY6NDg6MzIrMDA6MDBrDBZRAAAAAElFTkSuQmCC;clipPath=inset(3.7% 4% 3.7% 3.67%);" vertex="1" parent="1">
          <mxGeometry x="220" y="255.44" width="120" height="43.32" as="geometry" />
        </mxCell>
        <mxCell id="MrvQO-Zk9B1gZ7Mm1Of_-273" value="" style="endArrow=none;html=1;rounded=0;exitX=0.137;exitY=0.304;exitDx=0;exitDy=0;exitPerimeter=0;entryX=0.998;entryY=0.437;entryDx=0;entryDy=0;entryPerimeter=0;" edge="1" parent="1" source="MrvQO-Zk9B1gZ7Mm1Of_-276" target="MrvQO-Zk9B1gZ7Mm1Of_-272">
          <mxGeometry width="50" height="50" relative="1" as="geometry">
            <mxPoint x="355" y="270" as="sourcePoint" />
            <mxPoint x="360" y="275" as="targetPoint" />
            <Array as="points" />
          </mxGeometry>
        </mxCell>
        <mxCell id="MrvQO-Zk9B1gZ7Mm1Of_-274" value="" style="endArrow=none;html=1;rounded=0;entryX=1;entryY=0.564;entryDx=0;entryDy=0;entryPerimeter=0;exitX=0.434;exitY=-0.005;exitDx=0;exitDy=0;exitPerimeter=0;" edge="1" parent="1" source="MrvQO-Zk9B1gZ7Mm1Of_-264" target="MrvQO-Zk9B1gZ7Mm1Of_-272">
          <mxGeometry width="50" height="50" relative="1" as="geometry">
            <mxPoint x="310" y="295" as="sourcePoint" />
            <mxPoint x="360" y="245" as="targetPoint" />
            <Array as="points">
              <mxPoint x="355" y="280" />
            </Array>
          </mxGeometry>
        </mxCell>
        <mxCell id="MrvQO-Zk9B1gZ7Mm1Of_-277" value="" style="endArrow=none;html=1;rounded=0;exitX=0.572;exitY=-0.008;exitDx=0;exitDy=0;exitPerimeter=0;entryX=0.998;entryY=0.437;entryDx=0;entryDy=0;entryPerimeter=0;" edge="1" parent="1" source="MrvQO-Zk9B1gZ7Mm1Of_-264" target="MrvQO-Zk9B1gZ7Mm1Of_-276">
          <mxGeometry width="50" height="50" relative="1" as="geometry">
            <mxPoint x="360" y="320" as="sourcePoint" />
            <mxPoint x="340" y="274" as="targetPoint" />
            <Array as="points">
              <mxPoint x="360" y="275" />
            </Array>
          </mxGeometry>
        </mxCell>
        <mxCell id="MrvQO-Zk9B1gZ7Mm1Of_-276" value="" style="shape=ellipse;fillColor=#000000;strokeColor=none;html=1;sketch=0;" vertex="1" parent="1">
          <mxGeometry x="349.94" y="269.6" width="15" height="15" as="geometry" />
        </mxCell>
        <mxCell id="MrvQO-Zk9B1gZ7Mm1Of_-278" value="" style="endArrow=none;html=1;rounded=0;entryX=-0.008;entryY=0.443;entryDx=0;entryDy=0;entryPerimeter=0;" edge="1" parent="1" source="MrvQO-Zk9B1gZ7Mm1Of_-279" target="MrvQO-Zk9B1gZ7Mm1Of_-263">
          <mxGeometry width="50" height="50" relative="1" as="geometry">
            <mxPoint x="220" y="200" as="sourcePoint" />
            <mxPoint x="230" y="230" as="targetPoint" />
          </mxGeometry>
        </mxCell>
        <mxCell id="MrvQO-Zk9B1gZ7Mm1Of_-280" value="" style="endArrow=none;html=1;rounded=0;entryX=-0.008;entryY=0.443;entryDx=0;entryDy=0;entryPerimeter=0;" edge="1" parent="1" target="MrvQO-Zk9B1gZ7Mm1Of_-279">
          <mxGeometry width="50" height="50" relative="1" as="geometry">
            <mxPoint x="220" y="200" as="sourcePoint" />
            <mxPoint x="260" y="200" as="targetPoint" />
          </mxGeometry>
        </mxCell>
        <mxCell id="MrvQO-Zk9B1gZ7Mm1Of_-281" style="edgeStyle=orthogonalEdgeStyle;rounded=0;orthogonalLoop=1;jettySize=auto;html=1;entryX=-0.003;entryY=0.598;entryDx=0;entryDy=0;endArrow=none;endFill=0;entryPerimeter=0;" edge="1" parent="1" source="MrvQO-Zk9B1gZ7Mm1Of_-279" target="MrvQO-Zk9B1gZ7Mm1Of_-272">
          <mxGeometry relative="1" as="geometry">
            <Array as="points">
              <mxPoint x="220" y="255" />
              <mxPoint x="220" y="255" />
            </Array>
          </mxGeometry>
        </mxCell>
        <mxCell id="MrvQO-Zk9B1gZ7Mm1Of_-279" value="" style="shape=ellipse;fillColor=#000000;strokeColor=none;html=1;sketch=0;" vertex="1" parent="1">
          <mxGeometry x="215" y="195" width="10" height="10" as="geometry" />
        </mxCell>
        <mxCell id="MrvQO-Zk9B1gZ7Mm1Of_-283" value="" style="endArrow=none;html=1;rounded=0;entryX=0;entryY=0.5;entryDx=0;entryDy=0;" edge="1" parent="1" target="MrvQO-Zk9B1gZ7Mm1Of_-279">
          <mxGeometry width="50" height="50" relative="1" as="geometry">
            <mxPoint x="180" y="200" as="sourcePoint" />
            <mxPoint x="195" y="230" as="targetPoint" />
          </mxGeometry>
        </mxCell>
        <mxCell id="MrvQO-Zk9B1gZ7Mm1Of_-284" value="" style="endArrow=none;html=1;rounded=0;entryX=0;entryY=0.5;entryDx=0;entryDy=0;" edge="1" parent="1">
          <mxGeometry width="50" height="50" relative="1" as="geometry">
            <mxPoint x="180" y="277" as="sourcePoint" />
            <mxPoint x="220" y="276.99" as="targetPoint" />
          </mxGeometry>
        </mxCell>
        <mxCell id="MrvQO-Zk9B1gZ7Mm1Of_-285" value="" style="endArrow=none;html=1;rounded=0;entryX=0;entryY=0.5;entryDx=0;entryDy=0;" edge="1" parent="1" target="MrvQO-Zk9B1gZ7Mm1Of_-265">
          <mxGeometry width="50" height="50" relative="1" as="geometry">
            <mxPoint x="377.44" y="340" as="sourcePoint" />
            <mxPoint x="427.44" y="290" as="targetPoint" />
          </mxGeometry>
        </mxCell>
        <mxCell id="MrvQO-Zk9B1gZ7Mm1Of_-286" value="" style="endArrow=none;html=1;rounded=0;entryX=0;entryY=0.5;entryDx=0;entryDy=0;" edge="1" parent="1">
          <mxGeometry width="50" height="50" relative="1" as="geometry">
            <mxPoint x="475" y="339.77" as="sourcePoint" />
            <mxPoint x="532.56" y="339.77" as="targetPoint" />
          </mxGeometry>
        </mxCell>
        <mxCell id="MrvQO-Zk9B1gZ7Mm1Of_-287" value="$$\ket{\psi}$$" style="text;html=1;align=center;verticalAlign=middle;whiteSpace=wrap;rounded=0;" vertex="1" parent="1">
          <mxGeometry x="535" y="330" width="20" height="20" as="geometry" />
        </mxCell>
        <mxCell id="MrvQO-Zk9B1gZ7Mm1Of_-288" value="" style="endArrow=none;html=1;rounded=0;entryX=0;entryY=0.5;entryDx=0;entryDy=0;" edge="1" parent="1" target="MrvQO-Zk9B1gZ7Mm1Of_-264">
          <mxGeometry width="50" height="50" relative="1" as="geometry">
            <mxPoint x="180" y="340" as="sourcePoint" />
            <mxPoint x="335" y="340" as="targetPoint" />
          </mxGeometry>
        </mxCell>
        <mxCell id="MrvQO-Zk9B1gZ7Mm1Of_-289" value="$$\ket{\psi}$$" style="text;html=1;align=center;verticalAlign=middle;whiteSpace=wrap;rounded=0;" vertex="1" parent="1">
          <mxGeometry x="160" y="190" width="20" height="20" as="geometry" />
        </mxCell>
        <mxCell id="MrvQO-Zk9B1gZ7Mm1Of_-290" value="$$\ket{00}$$" style="text;html=1;align=center;verticalAlign=middle;whiteSpace=wrap;rounded=0;" vertex="1" parent="1">
          <mxGeometry x="155" y="267.1" width="25" height="20" as="geometry" />
        </mxCell>
        <mxCell id="MrvQO-Zk9B1gZ7Mm1Of_-291" value="$$\ket{11}$$" style="text;html=1;align=center;verticalAlign=middle;whiteSpace=wrap;rounded=0;" vertex="1" parent="1">
          <mxGeometry x="155" y="330" width="25" height="20" as="geometry" />
        </mxCell>
      </root>
    </mxGraphModel>
  </diagram>
</mxfile>
